<svg id="Capa_1" data-name="Capa 1" xmlns="http://www.w3.org/2000/svg" viewBox="0 0 894.34 156.37"><defs><style>.cls-1{fill:#fff;}</style></defs><title>mrm-mccann-workshop</title><path class="cls-1" d="M82.05,74.32a3.05,3.05,0,1,0,0,4.32A3.06,3.06,0,0,0,82.05,74.32Z"/><path class="cls-1" d="M120.92,35.45a15.27,15.27,0,1,0,0,21.59A15.26,15.26,0,0,0,120.92,35.45ZM116.6,52.72a9.16,9.16,0,1,1,0-12.95A9.17,9.17,0,0,1,116.6,52.72Z"/><path class="cls-1" d="M155.47.89A3.09,3.09,0,0,0,153.2,0a135.93,135.93,0,0,0-36.67,7.6C100.86,13.13,87.81,21,77.73,31.13c-2.26,2.26-4.46,4.65-6.57,7.14-10-5.87-18-4-23-1.32C36.52,43.17,29.32,60.07,29.32,72.16A3.06,3.06,0,0,0,31.21,75a3,3,0,0,0,1.17.23,3.08,3.08,0,0,0,2.16-.89,19.44,19.44,0,0,1,16.17-5.43L51.78,70A107.51,107.51,0,0,0,46.73,84.8a8.68,8.68,0,0,0,.37,5.3,29,29,0,0,0-8.24,5.81c-7.87,7.87-9.46,27-9.53,27.84A3.05,3.05,0,0,0,32.38,127h.24c.81-.06,20-1.66,27.83-9.52a29,29,0,0,0,5.82-8.24,8.61,8.61,0,0,0,5.3.36,106.86,106.86,0,0,0,14.83-5l1.07,1.07a19.43,19.43,0,0,1-5.42,16.17A3.05,3.05,0,0,0,84.21,127c12.09,0,29-7.2,35.21-18.83,2.7-5,4.54-13-1.33-23,2.49-2.1,4.89-4.3,7.15-6.56,10.08-10.09,18-23.14,23.53-38.8a135.26,135.26,0,0,0,7.59-36.68A3.07,3.07,0,0,0,155.47.89ZM36.15,65.59c1.9-9.18,7.41-19.26,14.89-23.26,5-2.67,10.45-2.41,16.26.77A122.75,122.75,0,0,0,54.47,64a3.42,3.42,0,0,0-1.62-1A26.15,26.15,0,0,0,36.15,65.59Zm20,47.6c-4.2,4.2-14.05,6.42-20.27,7.32.9-6.23,3.12-16.08,7.32-20.28A21.91,21.91,0,0,1,51,95.1l10.28,10.27A22,22,0,0,1,56.13,113.19Zm13.93-9.47a2.88,2.88,0,0,1-2.67-.87l-6-6L53.52,89a2.86,2.86,0,0,1-.87-2.67,100.09,100.09,0,0,1,3.81-11.66L81.72,99.9A99.53,99.53,0,0,1,70.06,103.72Zm44,1.61c-4,7.48-14.08,13-23.26,14.88,2.93-5.5,3.57-12.52,2.5-16.77a3.15,3.15,0,0,0-.93-1.54,124.52,124.52,0,0,0,20.92-12.83C116.45,94.87,116.71,100.34,114,105.33Zm6.88-31a109.33,109.33,0,0,1-8.81,7.9A116.73,116.73,0,0,1,87.77,97.31L59.05,68.6A117.91,117.91,0,0,1,74.14,44.25a113,113,0,0,1,7.91-8.8c9-9.05,20.72-16.25,34.71-21.44L142.35,39.6C137.17,53.59,130,65.27,120.92,74.32Zm23.63-41.16L123.2,11.82A136.24,136.24,0,0,1,150,6.37,136.93,136.93,0,0,1,144.55,33.16Z"/><path class="cls-1" d="M73.41,126.15a3,3,0,0,0-4.32,0l-8.64,8.64a3.05,3.05,0,0,0,4.32,4.32l8.64-8.64A3.06,3.06,0,0,0,73.41,126.15Z"/><path class="cls-1" d="M30.22,83a3,3,0,0,0-4.32,0l-8.64,8.63a3.05,3.05,0,0,0,4.32,4.32l8.64-8.63A3.06,3.06,0,0,0,30.22,83Z"/><path class="cls-1" d="M51.82,130.47a3.06,3.06,0,0,0-4.32,0L26.81,151.15a3.05,3.05,0,0,0,4.32,4.32l20.68-20.68A3.05,3.05,0,0,0,51.82,130.47Z"/><path class="cls-1" d="M27.38,130.47a3.06,3.06,0,0,0-4.32,0L2.38,151.15a3.05,3.05,0,0,0,4.31,4.32l20.69-20.68A3,3,0,0,0,27.38,130.47Z"/><path class="cls-1" d="M25.9,104.55a3.06,3.06,0,0,0-4.32,0L.89,125.24a3.05,3.05,0,1,0,4.32,4.32L25.9,108.87A3.06,3.06,0,0,0,25.9,104.55Z"/><path class="cls-1" d="M95,61.36a3.06,3.06,0,0,0-4.32,0l-4.32,4.32A3.05,3.05,0,0,0,90.69,70L95,65.68A3.06,3.06,0,0,0,95,61.36Z"/><path class="cls-1" d="M217.49,96.75V68.19L207.65,89h-4.8L192.77,68.19V96.75h-6.48V54h6.48l12.48,26.57L217.49,54H224V96.75Z"/><path class="cls-1" d="M258.65,96.75l-9-18h-8.1v18h-6.48V54h16.56c8.1,0,13.26,5.21,13.26,12.47a11.22,11.22,0,0,1-8.52,11.34l9.84,18.9Zm-7.5-36.89h-9.6V73.23h9.6c4.32,0,7.26-2.46,7.26-6.66S255.47,59.86,251.15,59.86Z"/><path class="cls-1" d="M305.57,96.75V68.19L295.73,89h-4.8L280.85,68.19V96.75h-6.48V54h6.48l12.48,26.57L305.57,54h6.48V96.75Z"/><path class="cls-1" d="M323.45,101.19h-5.88l17.1-51.59h5.88Z"/><path class="cls-1" d="M346.25,101.19h-5.88l17.1-51.59h5.88Z"/><path class="cls-1" d="M400,96.75V68.19L390.11,89h-4.8L375.23,68.19V96.75h-6.48V54h6.48l12.48,26.57L400,54h6.48V96.75Z"/><path class="cls-1" d="M428.81,97.11c-6.84,0-13.56-4.2-13.56-15.6S422,66,428.81,66a12.48,12.48,0,0,1,10,4.26l-4.2,4.08c-1.92-2.1-3.42-2.88-5.82-2.88a6.86,6.86,0,0,0-5.64,2.7c-1.32,1.68-1.8,3.84-1.8,7.38s.48,5.76,1.8,7.44a6.86,6.86,0,0,0,5.64,2.7c2.4,0,3.9-.78,5.82-2.88l4.2,4A12.53,12.53,0,0,1,428.81,97.11Z"/><path class="cls-1" d="M460.43,97.11a15.48,15.48,0,0,1-11.22-4.56c-4.2-4.2-4.14-8.94-4.14-17.16s-.06-13,4.14-17.16a15.47,15.47,0,0,1,11.22-4.55c7.86,0,13.74,4.61,15.24,13.13h-6.6c-1-4.32-3.9-7.31-8.64-7.31a8.57,8.57,0,0,0-6.3,2.57c-2.1,2.28-2.58,4.74-2.58,13.32s.48,11,2.58,13.32a8.54,8.54,0,0,0,6.3,2.58c4.74,0,7.68-3,8.7-7.32h6.54C474.23,92.49,468.17,97.11,460.43,97.11Z"/><path class="cls-1" d="M500,96.75V94c-2.22,2.22-4.32,3.12-8.1,3.12s-6.3-.9-8.16-2.76a9.33,9.33,0,0,1-2.4-6.54c0-5.1,3.54-8.76,10.5-8.76h8V76.89c0-3.84-1.92-5.7-6.66-5.7-3.36,0-5,.78-6.66,2.94l-4-3.78C485.39,67,488.39,66,493.43,66,501.77,66,506,69.51,506,76.41V96.75Zm-.12-13.44h-7.14c-3.6,0-5.46,1.62-5.46,4.38S489,92,492.83,92c2.34,0,4.08-.18,5.7-1.74.9-.9,1.32-2.34,1.32-4.5Z"/><path class="cls-1" d="M533.93,96.75V78.21c0-4.74-2.7-6.78-6.12-6.78s-6.3,2.1-6.3,6.78V96.75h-6.12V66.33h6v3.06a10.88,10.88,0,0,1,8.1-3.42,10.55,10.55,0,0,1,7.5,2.76c2.34,2.28,3.06,5.16,3.06,8.58V96.75Z"/><path class="cls-1" d="M568,96.75V78.21c0-4.74-2.7-6.78-6.12-6.78s-6.3,2.1-6.3,6.78V96.75h-6.12V66.33h6v3.06a10.88,10.88,0,0,1,8.1-3.42,10.55,10.55,0,0,1,7.5,2.76c2.34,2.28,3.06,5.16,3.06,8.58V96.75Z"/><path class="cls-1" d="M602.09,96.75V78.21c0-4.74-2.7-6.78-6.12-6.78s-6.3,2.1-6.3,6.78V96.75h-6.12V66.33h6v3.06a10.88,10.88,0,0,1,8.1-3.42,10.55,10.55,0,0,1,7.5,2.76c2.34,2.28,3.06,5.16,3.06,8.58V96.75Z"/><path class="cls-1" d="M667.6,96.75H662l-8.7-29.94-8.64,29.94H639L627.83,54h6.84l7.44,30.53L650.69,54h5.21l8.58,30.53L671.92,54h6.84Z"/><path class="cls-1" d="M702.22,93.51a12.31,12.31,0,0,1-9.12,3.6,12.17,12.17,0,0,1-9.06-3.6c-2.88-3-3.6-6.84-3.6-12s.72-8.94,3.6-11.94A12.17,12.17,0,0,1,693.1,66a12.31,12.31,0,0,1,9.12,3.6c2.88,3,3.6,6.84,3.6,11.94S705.1,90.51,702.22,93.51ZM697.6,73.17a6.2,6.2,0,0,0-4.5-1.74,6.06,6.06,0,0,0-4.44,1.74c-1.86,1.86-2.09,5-2.09,8.34s.23,6.48,2.09,8.34a6.11,6.11,0,0,0,4.44,1.8,6.25,6.25,0,0,0,4.5-1.8c1.86-1.86,2.1-5,2.1-8.34S699.46,75,697.6,73.17Z"/><path class="cls-1" d="M730.84,73.47a5.64,5.64,0,0,0-4.56-2c-3.3,0-6.06,2.64-6.06,6.84V96.75H714.1V66.33h6v3.3A10.1,10.1,0,0,1,728.2,66a9.41,9.41,0,0,1,7.26,2.88Z"/><path class="cls-1" d="M759.58,96.75l-8.52-14-4.5,5.1v8.94h-6.12V54h6.12V80.37l11.82-14h7.44L755.26,78.27l11.88,18.48Z"/><path class="cls-1" d="M783.16,97.11c-5,0-9.18-.84-12.78-4.38l4-4c2.46,2.52,5.76,3.18,8.76,3.18,3.72,0,6.66-1.32,6.66-4.2,0-2-1.14-3.36-4.08-3.6l-4.86-.42c-5.7-.48-9-3.06-9-8.4,0-5.94,5.1-9.3,11.46-9.3,4.56,0,8.46,1,11.28,3.42l-3.84,3.9c-1.92-1.62-4.62-2.22-7.5-2.22-3.66,0-5.52,1.62-5.52,3.9,0,1.8,1,3.18,4.2,3.48l4.8.42c5.7.48,9.06,3.18,9.06,8.58C795.82,93.81,790.42,97.11,783.16,97.11Z"/><path class="cls-1" d="M821.68,96.75V78.09c0-4.62-2.7-6.66-6.12-6.66s-6.18,2.1-6.18,6.66V96.75h-6.12V54h6.12V69.39A10.46,10.46,0,0,1,817.24,66c6.78,0,10.56,4.56,10.56,11.16V96.75Z"/><path class="cls-1" d="M857.56,93.51a12.31,12.31,0,0,1-9.12,3.6,12.17,12.17,0,0,1-9.06-3.6c-2.88-3-3.6-6.84-3.6-12s.72-8.94,3.6-11.94a12.17,12.17,0,0,1,9.06-3.6,12.31,12.31,0,0,1,9.12,3.6c2.88,3,3.6,6.84,3.6,11.94S860.44,90.51,857.56,93.51Zm-4.62-20.34a6.2,6.2,0,0,0-4.5-1.74A6.06,6.06,0,0,0,844,73.17c-1.86,1.86-2.1,5-2.1,8.34s.24,6.48,2.1,8.34a6.11,6.11,0,0,0,4.44,1.8,6.25,6.25,0,0,0,4.5-1.8c1.86-1.86,2.1-5,2.1-8.34S854.8,75,852.94,73.17Z"/><path class="cls-1" d="M890.92,94.41a10.37,10.37,0,0,1-7.38,2.7,9.46,9.46,0,0,1-8-3.48v15.42h-6.12V66.33h6v3.24a9.36,9.36,0,0,1,8-3.6,10.53,10.53,0,0,1,7.44,2.7c3.06,3.06,3.42,8.22,3.42,12.84S894,91.35,890.92,94.41Zm-9-23c-5.52,0-6.36,4.68-6.36,10.08s.84,10.14,6.36,10.14,6.3-4.74,6.3-10.14S887.44,71.43,881.92,71.43Z"/></svg>